/* XPM */
static const char *collectible[] = {
/* columns rows colors chars-per-pixel */
"50 50 152 2 ",
"   c #2F2B29",
".  c #312E2B",
"X  c #33312E",
"o  c #363432",
"O  c #393735",
"+  c #3A3836",
"@  c #3C3B39",
"#  c #413F3D",
"$  c #42413F",
"%  c #48443F",
"&  c #444342",
"*  c #494744",
"=  c #4B4946",
"-  c #4D4D4B",
";  c #504F4B",
":  c #52514E",
">  c #555452",
",  c #585754",
"<  c #5A5A55",
"1  c #5B5B58",
"2  c #605F5A",
"3  c #64635D",
"4  c #68665E",
"5  c #676660",
"6  c #6C6C65",
"7  c #6F6F69",
"8  c #706F67",
"9  c #706F68",
"0  c #737067",
"q  c #75746C",
"w  c #78776E",
"e  c #78786F",
"r  c #7C7B72",
"t  c #C47700",
"y  c #C67A01",
"u  c #CC7D01",
"i  c #D27E02",
"p  c #817E74",
"a  c #CE8304",
"s  c #D38404",
"d  c #D88705",
"f  c #D58A06",
"g  c #DB8C06",
"h  c #D28608",
"j  c #D58C09",
"k  c #DB8E09",
"l  c #DE9107",
"z  c #D7900B",
"x  c #DC930C",
"c  c #DF980E",
"v  c #DC9610",
"b  c #DE9911",
"n  c #E09106",
"m  c #E1950B",
"M  c #E39A0D",
"N  c #E89E0E",
"B  c #E39D12",
"V  c #E89F10",
"C  c #E6A00F",
"Z  c #E9A20E",
"A  c #E6A214",
"S  c #EAA514",
"D  c #EDA915",
"F  c #E6A51A",
"G  c #E9A618",
"H  c #E7AA1C",
"J  c #EDAC1A",
"K  c #F1AC15",
"L  c #F0AD16",
"P  c #F0AC17",
"I  c #F1AF1B",
"U  c #EFB01D",
"Y  c #F3B116",
"T  c #F3B217",
"R  c #F3B11A",
"E  c #F3B21B",
"W  c #F4B319",
"Q  c #F5B31A",
"!  c #F6B61A",
"~  c #F2B11C",
"^  c #F4B31E",
"/  c #F1B51F",
"(  c #F4B51C",
")  c #F7B71C",
"_  c #F8B61D",
"`  c #F6B81D",
"'  c #F9BA1E",
"]  c #F0B420",
"[  c #F3B621",
"{  c #F2B722",
"}  c #F4B720",
"|  c #F3B820",
" . c #F5BA20",
".. c #F7BD21",
"X. c #F5BB24",
"o. c #F6BC24",
"O. c #F8BB22",
"+. c #F8BE22",
"@. c #F9BD25",
"#. c #F7C027",
"$. c #FAC025",
"%. c #F6C129",
"&. c #F8C228",
"*. c #FAC52B",
"=. c #FAC82D",
"-. c #828076",
";. c #848279",
":. c #89867B",
">. c #8C8A7F",
",. c #8E8B80",
"<. c #8F8C81",
"1. c #918E82",
"2. c #939085",
"3. c #959285",
"4. c #959288",
"5. c #989589",
"6. c #9A988A",
"7. c #9C998B",
"8. c #9E9A8D",
"9. c #9F9C8F",
"0. c #A29E91",
"q. c #A4A091",
"w. c #A7A294",
"e. c #A9A493",
"r. c #ABA697",
"t. c #ADA997",
"y. c #ABA798",
"u. c #AEA999",
"i. c #AFAA9C",
"p. c #B0AB9A",
"a. c #B1AD9D",
"s. c #B6B19F",
"d. c #B7B3A1",
"f. c #B8B3A0",
"g. c #BAB5A3",
"h. c #BBB7A5",
"j. c #BCB7A5",
"k. c #BCB8A5",
"l. c #BFBAA8",
"z. c #C3BDA9",
"x. c #C1BCAA",
"c. c #C2BDAA",
"v. c #C5C0AB",
"b. c #C6C1AD",
"n. c #C8C2AF",
"m. c #CAC4AF",
"M. c #CCC6B0",
"N. c #CDC6B1",
"B. c #CFC9B4",
"V. c #D1CBB4",
"C. c #D2CCB5",
"Z. c #D4CDB6",
/* pixels */
"d s m M G J /  .S B J +. .+.A y z ( R ' R k x A A A A K Y R Q / [ S n D @.( ' R D A s j z v Q Q x z ",
"f d m M G J /  .G B J O. .+.A y z Q R ' R k x A A A A K Y R Q / [ A n D +.( _ R D V s j v B ( Q m x ",
"J J S S z h V S I  .A m A I I R I K S x M D K ^ R x z K R A V c j S ( | &.G f x m N D D } ( ( ` / / ",
"~ I S S k a B S ~ @.A k V J I ' R K A g x I R ( ~ z f K R V B k a A O. .&.A s g k M R R O.O.( } ` ..",
"( ( A B J J I I  .%.~ S A B G +.J c c k m K D M # - = @ o A D J [ S M J #.R S V x x k M .. .( Q S S ",
"` ( B b J ^ ~ R X.%./ I A x S $.J j z k m K . 3 6 ;.r < & O K ( @.S k J $.( I A k k s z .. .( Q C N ",
"D D D D D D V m D Q A x A [ ~ R D x M I J J < q r 9.5.5 - & J G A G R A b c z B ~ D N A ( R x c D D ",
"Z S R Q D S m d A Y M s A =. .K S l N O.. % 0.>.;.n.g.0 < - O X v J +.A j h a b $.( S K ! K s s J J ",
"U U I I B m m c A S A V S } J N A D D I : 4 w.>.;.b.g.0 1 > * $ ~ J J B k c M c x c S S K D M M M M ",
"X.X.J S k d B B A A D R D K S m A O.Q X p i.8.-.p b.h.r 3 < 3 > O J H B f M K c y h S S K D S A k k ",
"J J ~ I A V M c c x c z V I A g M K K X >.l.0 6 r b.j.r 3 < 3 > O G m B B S R A j z m m M N D S M M ",
"H H  . .K K m g d s u t z [ B i x . * p u.c.r 0 r b.j.r 7 5 = $ @ O o V J ~ ..D l l d g d g K Y S A ",
"B B B B S D S S N m B b A I A x x X ; w.k.c.r q r b.k.r w 7 @ O @ @ O m B S R D S A m N S S S A z z ",
"n k u u B S } $.R D ( @.( I D A o < w j.q.>.q q r b.j.r q 7 @ @ - - & o   M D K ' Q S J o.| M M u u ",
"m m B v A S J R S V A A A A A S + w 1.B.3.4 q q r b.h.r e 7 @ @ < 1 : O . S I J J D N A ~ J z z k k ",
"B B (  .D A S D M c j a h s c ~ + w >.B.3.5 0 q r b.h.r w 9 @ @ , 1 : O X I ( J A B g x J A u u A F ",
"A A [ } V m Z S M k z z c M . = r r.f.C.5.0 q q r b.h.r q 0 * # & > , - = X  .J B B M V S A h j F G ",
"I I X.o.k s m M f u x S D R X : <.c.V.Z.7.q q q r b.h.r q 0 - & @ - 1 1 > o &.J d m [ J A V b b U [ ",
"S S ~ [ M x N S x f M D D K X : ,.c.V.C.6.q q q r b.h.r q 0 : * @ - 1 1 > O ( S x B J J S S B B ~ [ ",
"c x B B / +.` ( I D R Q R K X < u.N.f.p w q q q r b.j.r q 0 > - O - 1 1 > O M Z K D F H  .} K I | | ",
"B B B B R ( ~ ( D A J R D S $ 4 u.N.r., 4 q q q r b.h.r q 0 1 : O = > 1 > $ N A D S A G ( ~ D D ~ ~ ",
"H G f s S K S G B k B J . o 3 w 1.b.r., 4 q q q r b.j.e q 0 1 : @ @ & 1 1 > O . D A m N D S k k B B ",
"J G k g A D D J V m A J . o 3 r 7.n.t.3 7 q q q r b.h.r q q 1 : @ O & 1 1 , @ . J S m M D A k x B A ",
"X.X.K K m g J  .I I I K . O 4 :.s.N.p.8 q q q q r b.h.r q q 1 : @ O & 1 1 , @ . ( S d k A B k m J U ",
"X.X.D S m k J  .I I I K . O 4 1.m.C.t.3 7 q q q r v.g.e q 0 < : O O & 1 1 > @ X ( D g x A A k x J J ",
"K D k d S K D D M x S ( . O 4 1.V.Z.r.> 4 q q q r v.j.e q 0 < : @ O & < 1 > @ . ..` R Y K S g g M M ",
"D S g d S K S S M l S } . O 4 1.V.Z.e.> 4 q q q r b.j.e q 0 < - @ O & 1 1 > @ X ..` Q R K S g g M m ",
"B B m m S J ~ ( I I B f . O 4 1.V.Z.e.: 4 q q q r b.j.e q 0 > = @ O & 1 1 > @ o j c S S M V ~ ~ G S ",
"v c m m S J /  .~ ^ b a . O 4 1.B.Z.e.: 4 q q q r b.h.r q 0 > = @ O & 1 1 > @ X a j Z Z m N .. .G G ",
"G G ~ ~ M x x x M M A A . O 4 ;.r.N.e.: 4 q q q r b.h.e q 0 - & O O & 1 1 , @ X m m c c k m ( ( ~ R ",
"U ~  .@.x f d s x c Z S   o 3 r 0.m.e.: 4 q q q r b.h.e q 7 & @ O O & < , : @ . M M x x g x Q ( ( ( ",
"z z A S A A G U c s V R   o 3 p q.N.q.: 3 0 q q r b.h.e q 6 & @ O O & , > ; O . R S f g m m c M M m ",
"a s b B G G [ $.v y B ` D o 1 w w.N.a.0 4 3 0 q r v.g.e 0 6 $ @ O * > < > & o B  .D s f M m j j d d ",
"c c J J A B ~ ..G A A N S K ; 6 0.n.m.k.;.< 0 q r v.g.q 6 3 $ @ O - 1 < # o G D I D c M D S f f A A ",
"B B X.X.A M ( $.( ( A k A ( o : 2.c.N.n.:.< 8 q r b.g.q 1 : # @ O - 1 , @ o ~ I D D A A ( J s d I R ",
"D S G G c x B B B V S D D I X - :.k.n.n.:.< 7 0 r c.d.e < : & # & , 1 : @ X x B D D S D J D m m S S ",
"Q Y V B z g s a f g D @./ J ^ +.$ 5.u.j.;.> < < 0 y.w.r > = = > 0 7 , O . d u k J D Q R J D Z Z S A ",
"A A A A A A B B V V S I S M V A o r 1.a.,.6 < < 7 0.5.6 ; - < 7 q 3 = o . B M M B B c c V V S Z c z ",
"g g A F R Q } } I D S A m d f h z X = 5.4.:.2 1 3 ;.r - - 1 0 7 q * . D S D Y A z j y a k x D D a u ",
"A A A S ~ ( A b G R D D V x x k c G o $ = ; = = * = = = 6 q 7 : @ o S S G D R A k z h j V A D S j j ",
"@.O.D D  .$.j t H *.^ K S B m g N +.O.. + $ $ $ $ # $ * 3 5 < * X V k S } ( ' S d g z M Y Y D S c c ",
"~ J A A J I x s B J D K D S M g M ~ J D S C o O O O O O O O O X U A N A B A R S m M B A S S V V B B ",
"A B c c l k c b g s N I ~ ..D g m S A z v Q Q J G a u A K x d J o.~ R z t h b A I R +.R x k u s J ~ ",
"G A c z M N B B c x V S J / D M N M B B B D D S A j h D I M x A J D K B j b S A A S R D k k x c G J ",
"( ~ s u J +.G A S D B x B A G +.J s x Q D f g m m A A [ @.J G k u m S I O.( ` D g m B v u s  .( A V ",
"~ I k j G J A V S J A c B B S ` S g m R D x c M M B B J J S A c d M S J I I Q S g x A B h z ~ R V V ",
"S S Y R j a k k J %.J G b a c I S M N S D ( ( J H x x s s z c J @.D A B z V K N u z Y R ` ( D S m m ",
"S S D D k s x m J o.J A b h c D A N N S S R R G F M m f s c B J +.D N V b A K V a z K J R R D D m m ",
"m m c c M m D K K R N x A I A k M Q I S S Z Z c B U ~ B c J ( I R M d S o.~ I S c B D A x b  .[ g g ",
"m x c c M m S K K R V x A R A k M ( I S S Z Z c b U ~ B m I } I R M d S o.~ I S c B S A c B  .[ g f "
};
