/* XPM */
static const char *empty[] = {
/* columns rows colors chars-per-pixel */
"50 50 158 2 ",
"   c #C47700",
".  c #C67A01",
"X  c #CC7D01",
"o  c #D27E02",
"O  c #CE8304",
"+  c #D38404",
"@  c #D88705",
"#  c #D58A06",
"$  c #DB8C06",
"%  c #D28608",
"&  c #D58C09",
"*  c #DB8E09",
"=  c #DE9107",
"-  c #D7900B",
";  c #DC930C",
":  c #DF980E",
">  c #DC9610",
",  c #DE9911",
"<  c #E09106",
"1  c #E1950B",
"2  c #E39A0D",
"3  c #E89E0E",
"4  c #E09711",
"5  c #E39D12",
"6  c #E89F10",
"7  c #E6A00F",
"8  c #E9A20E",
"9  c #E6A214",
"0  c #EAA514",
"q  c #EDA915",
"w  c #E6A51A",
"e  c #E9A618",
"r  c #E7AA1C",
"t  c #EDAC1A",
"y  c #F0AD16",
"u  c #F1AD16",
"i  c #F0AC17",
"p  c #F0AD17",
"a  c #F1AF16",
"s  c #F1AC15",
"d  c #F0AC18",
"f  c #F1AD18",
"g  c #F0AD19",
"h  c #F1AF19",
"j  c #F2AF18",
"k  c #F1AD1A",
"l  c #F0AE1A",
"z  c #F0AF1A",
"x  c #F1AF1B",
"c  c #F2AF1A",
"v  c #F1AE19",
"b  c #EFB01D",
"n  c #F2B016",
"m  c #F3B217",
"M  c #F3B116",
"N  c #F1B11A",
"B  c #F0B01B",
"V  c #F1B01B",
"C  c #F2B01A",
"Z  c #F3B11A",
"A  c #F2B11B",
"S  c #F3B11B",
"D  c #F3B21A",
"F  c #F3B21B",
"G  c #F4B218",
"H  c #F4B219",
"J  c #F4B319",
"K  c #F4B31A",
"L  c #F5B31A",
"P  c #F5B31B",
"I  c #F5B41A",
"U  c #F5B51A",
"Y  c #F4B41B",
"T  c #F5B41B",
"R  c #F5B51B",
"E  c #F6B51A",
"W  c #F6B61A",
"Q  c #F0B01C",
"!  c #F0B01D",
"~  c #F2B11C",
"^  c #F2B11D",
"/  c #F0B21C",
"(  c #F3B21C",
")  c #F4B31E",
"_  c #F3B41C",
"`  c #F3B61C",
"'  c #F3B61D",
"]  c #F1B41E",
"[  c #F1B51F",
"{  c #F2B41E",
"}  c #F2B51E",
"|  c #F2B41F",
" . c #F4B51C",
".. c #F5B51C",
"X. c #F4B51D",
"o. c #F5B61D",
"O. c #F7B71C",
"+. c #F4B51E",
"@. c #F5B51E",
"#. c #F4B71F",
"$. c #F5B71F",
"%. c #F6B61E",
"&. c #F7B71E",
"*. c #F6B71F",
"=. c #F3B31C",
"-. c #F8B61D",
";. c #F6B81D",
":. c #F6B81F",
">. c #F7BB1F",
",. c #F6B81E",
"<. c #F8B81D",
"1. c #F8B91D",
"2. c #F8B81F",
"3. c #F9BA1E",
"4. c #F8BA1F",
"5. c #EEAF20",
"6. c #EFB321",
"7. c #F0B420",
"8. c #F2B722",
"9. c #F4B720",
"0. c #F3B621",
"q. c #F3B820",
"w. c #F2B822",
"e. c #F4B921",
"r. c #F5B921",
"t. c #F6B921",
"y. c #F5BA20",
"u. c #F5BA21",
"i. c #F5B922",
"p. c #F6B922",
"a. c #F5BA22",
"s. c #F7BB22",
"d. c #F7BD21",
"f. c #F5BB24",
"g. c #F6BC24",
"h. c #F5BA23",
"j. c #F8BA21",
"k. c #F8BB21",
"l. c #F8BB22",
"z. c #F9BD21",
"x. c #F9BD22",
"c. c #F8BC23",
"v. c #F8BE22",
"b. c #F8BD24",
"n. c #F9BD25",
"m. c #F8BF26",
"M. c #F9BD22",
"N. c #F7C025",
"B. c #F7C027",
"V. c #F9C125",
"C. c #F8C227",
"Z. c #FAC025",
"A. c #F7C028",
"S. c #F6C129",
"D. c #F7C128",
"F. c #F8C228",
"G. c #FAC52B",
"H. c #FAC82D",
/* pixels */
"@ + 1 2 e t [ y.0 5 t v.y.v.9 . -  .Z 3.F * ; 9 9 9 9 y m Z L [ 0.0 < q n. .3.F q 9 + & - > L L ; - ",
"# @ 1 2 e t [ y.e 5 t l.y.v.9 . - L Z 3.F * ; 9 9 9 9 y m Z L [ 0.9 < q v. .-.F q 6 + & > 5  .L 1 ; ",
"t t 0 0 - % 6 0 x y.9 1 9 x x F x y 0 ; 2 q i ) F ; - y Z 9 6 : & 0  .q.F.e # ; 1 3 q q 9. . .;.[ [ ",
"~ x 0 0 * O 5 0 ~ n.9 * 6 t x 3.Z y 9 $ ; x F  .~ - # y Z 6 5 * O 9 l.y.F.9 + $ * 2 Z Z l.l. .9.;.d.",
" . .9 5 t t x x y.S.~ 0 9 5 e v.t : : * 1 i q 2 2 x ~ 1 * 9 q t 0.0 2 t B.F 0 6 ; ; * 2 d.y. .L 0 0 ",
";. .5 , t ) ~ Z f.S.[ x 9 ; 0 Z.t & - * 1 i 0 1 1  .y.* + 9 i  .n.0 * t Z. .x 9 * * + - d.y. .L 7 3 ",
"q q q q q q 6 1 q L 9 ; 9 8.~ Z q ; 2 x t t e * & 5 5 t x t t e 9 e F 9 , : - 5 ~ q 3 9  .F ; : q q ",
"8 0 Z L q 0 1 @ 9 M 2 + 9 H.y.y 0 = 3 l.9.t e + O - - 0.Z.~ t 9 > t v.9 & % O , Z. .0 s W y + + t t ",
"b b x x 5 1 1 : 9 0 9 6 0 9.t 3 9 q q x q 1 1 5 5 & % q F 9 2 t ~ t t 5 * : 2 : ; : 0 0 y q 2 2 2 2 ",
"f.f.t 0 * @ 5 5 9 9 q F q i 0 1 9 l.L q 9 @ * x t X X 9 i 2 < x l.t r 5 # 2 s : . % 0 0 s q 0 9 * * ",
"t t ~ x 9 6 2 : : ; : - 6 x 9 $ 2 y y F x 6 9 t t w 9 3 2 2 1 b n.e 1 5 5 0 F 9 & - 1 1 2 3 q 0 2 2 ",
"r r y.y.y s 1 $ @ + X   - 0.5 o ; s y 3. .Z Z i i Z.Z.: # 6 3 [ H.6 + 6 t ~ d.q = = @ $ @ $ y m 0 9 ",
"5 5 5 5 0 q 0 0 3 1 5 , 9 x 9 ; ; ; 2 ~ t 9 9 t x 9.y.9 3 : & e q.5 * 1 5 0 F q 0 9 1 3 0 0 0 9 - - ",
"< * X X 5 0 9.Z.F q  .n. .x q 9 : X % r 9 * 1 6.0.l.v.F m #   5 ~ 9 5 : $ 2 q y 3.L 0 t g.q.2 2 X X ",
"1 1 5 > 9 0 t F 0 6 9 9 9 9 9 0 6 & ; 9 5 9 9 e e q q 9 0 : & 5 9 , * 1 3 0 x t t q 3 9 ~ t - - * * ",
"5 5  .y.q 9 0 q 2 : & O % + : ~ q 3 2 & :  .) 1 ; & & : , 9 0 2 - + X 2 y x  .t 9 5 $ ; t 9 X X 9 w ",
"9 9 7.9.6 1 8 0 2 * - - : 2 5 0 0 0 9 * : q q 5 2 5 5 : - 9 q 5 : & + 2 q x y.t 5 5 2 6 0 9 % & w e ",
"x x f.g.* + 1 2 # X ; 0 q F 0 - 6 g.t @ $ 3 3 e e t t & O 0 -.2 $ ; - 9 i ~ F.t @ 1 0.t 9 6 , , b 0.",
"0 0 ~ 7.2 ; 3 0 ; # 2 q q y 0 5 e f.t ; : 2 2 5 5 t t : * q  .6 1 : ; 6 9 q  .0 ; 5 t t 0 0 5 5 ~ 0.",
": ; 5 5 [ v.;. .x q F L F y  .S.f.b ~ ~ t 1 : + @ ~ y.y s L ;.F x 0 7 : & ; 2 8 i q w r y.9.i x q.q.",
"5 5 5 5 F  .~  .q 9 t F q 0 t y.[ e e t 0 : ; & * t ~ y y F  .x q 0 0 2 # ; 3 9 q 0 9 e  .~ q q ~ ~ ",
"r e # + 0 y 0 e 5 * 5 t 4 X ; L 9 # - , > O O e t 1 ; [ y.y y 9 2 t v.5 X ; 9 9 q 9 1 3 q 0 * * 5 5 ",
"t e * $ 9 q q t 6 1 9 t 5 + 2 Z 0 - : 5 , O % 0 0 2 2 t ~ q 0 9 3 q 3.6 + ; 0 0 t 0 1 2 q 9 * ; 5 9 ",
"f.f.y s 1 $ t y.x x x i y F y 0 q x F 9.[ 0 0 = = [ y.; $ $ $ 0 Z q q 0 3 0 y y  .0 @ * 9 5 * 1 t b ",
"f.f.q 0 1 * t y.x x x i y F i 0 q F F y. .q 0 * = [ q.; $ $ $ 0 F q 0 0 9 0 s y  .q $ ; 9 9 * ; t t ",
"i q * @ 0 y q q 2 ; 0  .0 2 ; @ ; q 0 x x [ b - : 9 9 : - 9 q 5 - * @ 6  .x q F d.;.F m y 0 $ $ 2 2 ",
"q 0 $ @ 0 y 0 0 2 = 0 9.0 : ; + * q q i x q.~ ; : 9 9 > ; 9 i 5 - & + 6  .F q F d.;.L Z y 0 $ $ 2 1 ",
"5 5 1 1 0 t ~  .x x 5 # 5 t t F F [ q 1 2 q 9 $ $ ; ; t 0.t t ~ q.[ ~ q q 7 ; - & : 0 0 2 6 ~ ~ e 0 ",
"> : 1 1 0 t [ y.~ ) , O : x x ;.;. .t = 1 0 9 $ $ - - 0.g.~ t y.S.d.v.F q 3 $ & O & 8 8 1 3 d.y.e e ",
"e e ~ ~ 2 ; ; ; 2 2 9 9 q F t e 0 6 6 9 6 - ; t F q 0 q q 9 3 ; & 9 F F ;.q 0 7 1 1 : : * 1  . .~ F ",
"b ~ y.n.; # @ + ; : 8 0 y L t e 9 1 2 0 9 # & y.y.F q 0 0 2 2 # X 2 y [ v.F q 0 2 2 ; ; $ ; L  . . .",
"- - 9 0 9 9 e b : + 6 F q 0 6 1 2 t 0 : : 2 6 t t : : ; ; 9 q 0 w q q 6 ; 2 5 9 F 0 # $ 1 1 : 2 2 1 ",
"O + , 5 e e 0.Z.> . 5 ;.q 6 2 * 2  .q - : 9 9 t 0 & # @ @ 9 y t 5.e q : + * ; 5 y.q + # 2 1 & & @ @ ",
": : t t 9 5 ~ d.e 9 9 3 0 y 2 O * 9 5 ; ; 2 2 6 9 t t 0 0 6 2 t f.9 2 9 q 0 e q x q : 2 q 0 # # 9 9 ",
"5 5 f.f.9 2  .Z. . .9 * 9 O.2   O > - $ * 1 ; 2 5 q.B.y.v.6 $ b H.w * e Z. .~ x q q 9 9  .t + @ x F ",
"q 0 e e : ; 5 5 5 6 0 q q x q 5 9 0 0 e e 9 9 * * [  .t t 0 8 9 9 9 6 9 9 5 ; 5 q q 0 q t q 1 1 0 0 ",
"J m 6 5 - $ + O # $ q n.[ t ) v. .y L G.Z.~ t + + [ ;.q q q s 1 & 3 s 2 & @ X * t q L F t q 8 8 0 9 ",
"9 9 9 9 9 9 5 5 6 6 0 x 0 2 6 9 9 0 9 5 9 9 6 ; - q t 6 2 q F : + 6 y 9 5 5 2 2 5 5 : : 6 6 0 8 : - ",
"$ $ 9 w F L 9.9.x q 0 9 1 @ # % - 5 - X X - - 5 5 5 5 $ @ t v.- X 6  .q 0 q M 9 - & . O * ; q q O X ",
"9 9 9 0 ~  .9 , e F q q 6 ; ; * : e 9 : : ; : 0 0 0 9 6 2 0 t 5 - 6 0 0 e q F 9 * - % & 6 9 q 0 & & ",
"n.l.q q y.Z.&   r G.) y 0 5 1 $ 3 v.l.L F ; 2 y.y.y y  .;.9 : 0 b 6 * 0 9. .3.0 @ $ - 2 M m q 0 : : ",
"~ t 9 9 t x ; + 5 t q y q 0 2 $ 2 ~ t q 0 7 9 ~ b 3 2 x F 5 ; 0 b 9 3 9 5 9 F 0 1 2 5 9 0 0 6 6 5 5 ",
"9 5 : : = * : , $ + 3 x ~ d.q $ 1 0 9 - > L L t e O X 9 i ; @ t g.~ Z -   % , 9 x F v.F ; * X + t ~ ",
"e 9 : - 2 3 5 5 : ; 6 0 t [ q 2 3 2 5 5 5 q q 0 9 & % q x 2 ; 9 t q i 5 & , 0 9 9 0 F q * * ; : e t ",
" .~ + X t v.e 9 0 q 5 ; 5 9 e v.t + ; L q # $ 1 1 9 9 0.n.t e * X 1 0 x l. .;.q $ 1 5 > X + y. .9 6 ",
"~ x * & e t 9 6 0 t 9 : 5 5 0 ;.0 $ 1 F q ; : 2 2 5 5 t t 0 9 : @ 2 0 t x x L 0 $ ; 9 5 % - ~ F 6 6 ",
"0 0 m Z & O * * t S.t e , O : x 0 2 3 0 q  . .t r ; ; + + - : t n.q 9 5 - 6 y 3 X - m F ;. .q 0 1 1 ",
"0 0 q q * + ; 1 t g.t 9 , % : q 9 3 3 0 0 Z F e w 2 1 # + : 5 t v.q 3 6 , 9 y 6 O - y t F F q q 1 1 ",
"1 1 : : 2 1 q y y F 3 ; 9 x 9 * 2 L x 0 0 8 8 : 5 b ~ 5 : t  .x F 2 @ 0 g.~ x 0 : 5 q 9 ; , y.0.$ $ ",
"1 ; : : 2 1 0 y y F 6 ; 9 F 9 * 2  .x 0 0 8 8 : , b ~ 5 1 x 9.x F 2 @ 0 g.~ x 0 : 5 0 9 : 5 y.0.$ # "
};
