/* XPM */
static const char *exit[] = {
/* columns rows colors chars-per-pixel */
"50 50 207 2 ",
"   c #052C1B",
".  c #082E1D",
"X  c #0B321E",
"o  c #0E3B1D",
"O  c #06341E",
"+  c #1A371F",
"@  c #123C1D",
"#  c #243A1E",
"$  c #0D3221",
"%  c #143A24",
"&  c #1A3C2B",
"*  c #113524",
"=  c #2B3726",
"-  c #363824",
";  c #48351F",
":  c #493B23",
">  c #553B26",
",  c #6F3D23",
"<  c #14431E",
"1  c #18471F",
"2  c #164A1E",
"3  c #1B4C1D",
"4  c #1D531E",
"5  c #224E1E",
"6  c #22541E",
"7  c #255B1E",
"8  c #2A641E",
"9  c #33691F",
"0  c #3C781F",
"q  c #34721E",
"w  c #174524",
"e  c #1C4B27",
"r  c #1D5224",
"t  c #1B4936",
"y  c #234827",
"u  c #244B2C",
"i  c #245A22",
"p  c #295924",
"a  c #25542C",
"s  c #244934",
"d  c #2C553A",
"f  c #2D5C32",
"g  c #34593C",
"h  c #3B532A",
"j  c #2B6325",
"k  c #2D622A",
"l  c #346E24",
"z  c #34682A",
"x  c #3B7524",
"c  c #376939",
"v  c #3D7332",
"b  c #5C4729",
"n  c #504F30",
"m  c #4A5826",
"M  c #6C4A34",
"N  c #764B30",
"B  c #456A26",
"V  c #556928",
"C  c #497425",
"Z  c #487A38",
"A  c #42743B",
"S  c #4D6537",
"D  c #727332",
"F  c #727729",
"G  c #1B504B",
"H  c #395A42",
"J  c #2A5850",
"K  c #3D6345",
"L  c #38615D",
"P  c #366E78",
"I  c #386B6A",
"U  c #435B46",
"Y  c #45684C",
"T  c #4B6D54",
"R  c #566A53",
"E  c #59775A",
"W  c #4F7648",
"Q  c #63755D",
"!  c #7D6A50",
"~  c #707E64",
"^  c #596E64",
"/  c #8D3A22",
"(  c #A63C22",
")  c #A27A1F",
"_  c #8A4021",
"`  c #954122",
"'  c #855335",
"]  c #954832",
"[  c #A54225",
"{  c #B84625",
"}  c #BD503A",
"|  c #B75130",
" . c #957526",
".. c #CC7D01",
"X. c #C57901",
"o. c #D8671F",
"O. c #C95326",
"+. c #D85224",
"@. c #CF4A2C",
"#. c #E65524",
"$. c #E1573C",
"%. c #F45E24",
"&. c #C96132",
"*. c #D66B32",
"=. c #E87230",
"-. c #AA6549",
";. c #8F6F4E",
":. c #D95B44",
">. c #C55C45",
",. c #E75B43",
"<. c #C66246",
"1. c #DA6D53",
"2. c #F16A4E",
"3. c #EC704F",
"4. c #EF6A52",
"5. c #ED7657",
"6. c #F17153",
"7. c #F57766",
"8. c #478228",
"9. c #548935",
"0. c #71842A",
"q. c #6F8D34",
"w. c #4C8241",
"e. c #59854D",
"r. c #679055",
"t. c #588679",
"y. c #728167",
"u. c #7B886E",
"i. c #748369",
"p. c #7E8B71",
"a. c #70906D",
"s. c #93912D",
"d. c #B49C35",
"f. c #A99337",
"g. c #9CAB3C",
"h. c #93921F",
"j. c #CE8304",
"k. c #D88705",
"l. c #D58A06",
"z. c #DB8C06",
"x. c #D28608",
"c. c #D58C09",
"v. c #DB8E09",
"b. c #D38404",
"n. c #D7900B",
"m. c #DC930C",
"M. c #DF980E",
"N. c #DE9107",
"B. c #DC9610",
"V. c #DE9911",
"C. c #E1950B",
"Z. c #E39A0D",
"A. c #E89E0E",
"S. c #E09106",
"D. c #E39D12",
"F. c #E89F10",
"G. c #E9A20E",
"H. c #E6A00F",
"J. c #E6A214",
"K. c #EAA514",
"L. c #EDA915",
"P. c #E9A618",
"I. c #E7AA1C",
"U. c #EDAC1A",
"Y. c #E6A51A",
"T. c #F0AD16",
"R. c #F1AF1B",
"E. c #EFB01D",
"W. c #F3B217",
"Q. c #F3B31C",
"!. c #F6B81D",
"~. c #F9B91E",
"^. c #D09328",
"/. c #DAA82C",
"(. c #D3AA30",
"). c #F3B621",
"_. c #F5BB21",
"`. c #F8BD23",
"'. c #EBB432",
"]. c #F6A72F",
"[. c #FAC025",
"{. c #F8C329",
"}. c #828E74",
"|. c #889278",
" X c #9DA768",
".X c #C09045",
"XX c #F6805E",
"oX c #FCB643",
"OX c #FA8767",
"+X c #FA9C7E",
"@X c #F7B362",
"#X c #477888",
"$X c #518AA0",
"%X c #979E82",
"&X c #96A48A",
"*X c #A1A78B",
"=X c #A4A98C",
"-X c #AEB091",
";X c #B5B698",
":X c #81A9BB",
">X c #D2CEAE",
",X c #D4D1B1",
"<X c #DBD5B2",
"1X c #CBC8A8",
"2X c #E5DDBA",
"3X c #EAE2BF",
"4X c #F3E9C5",
/* pixels */
"k.b.C.Z.P.U.Q._.K.D.U.`._.`.J.X.n.Q.Q.~.Q.v.m.J.J.J.J.T.W.Q.Q.Q.).K.S.L.`.Q.~.Q.L.J.b.c.n.B.Q.Q.m.n.",
"l.k.C.Z.P.U.Q._.P.D.U.`._.`.J.X.n.Q.Q.~.Q.v.m.J.J.J.J.T.W.Q.Q.Q.).J.S.L.`.Q.!.Q.L.F.b.c.B.D.Q.Q.C.m.",
"U.U.K.K.n.x.F.K.R._.J.C.J.R.R.Q.R.T.K.m.Z.L.T.Q.Q.m.n.T.Q.J.F.M.c.K.Q.).{.P.l.m.C.A.L.L.).Q.Q.!.Q.Q.",
"Q.R.K.K.v.j.D.K.Q.`.J.v.F.U.R.~.Q.T.J.z.m.R.Q.Q.Q.n.l.T.Q.F.D.v.j.J.`._.{.J.b.z.v.Z.Q.Q.`.`.Q.).!.`.",
"Q.Q.J.D.U.U.R.R._.{.Q.K.J.D.P.`.U.M.M.v.C.T.L.Z.Z.R.Q.C.v.J.L.U.).K.Z.U.[.Q.K.F.m.m.v.Z.`._.Q.Q.K.K.",
"!.Q.D.V.U.Q.Q.Q._.{.Q.R.J.m.K.[.U.c.n.v.C.T.K.C.C.Q._.v.b.J.T.Q.`.K.v.U.[.Q.R.J.v.v.b.n.`._.Q.Q.H.A.",
"L.L.L.L.L.L.F.C.L.Q.J.m.J.).Q.Q.L.m.Z.R.U.K A v.c.D.D.Z A U.U.P.J.P.Q.J.V.M.n.D.Q.L.A.J.Q.Q.m.M.L.L.",
"G.K.Q.Q.L.K.C.k.J.W.Z.b.J.{._.T.K.A A.`.).U.p e.j.n.Z 8.[.Q.U.J.$.U.7.OX+Xx.j.V.[.Q.K.T.!.T.b.b.U.U.",
"E.E.R.R.D.C.C.M.J.K.J.F.K.).U.d D s.E P P L w l D.A x l Q.J.Z.2.5.5.7.OXOXM.Z.M.m.M.K.K.T.L.Z.Z.Z.Z.",
"_._.U.K.v.k.D.D.J.J.L.Q.L.T.K.t s.'.f.u.J t 7 4 s i 8 w T.Z.3.5.7.5.5.5.5.7.T.Z.X.x.K.K.T.L.K.J.v.v.",
"U.U.Q.R.J.F.Z.M.M.m.M.n.e d J..X^.].s.W t < 3 o V 0.6 i c ;.2.OXXX2.:.5.OX5.Q.J.c.n.C.C.Z.A.L.K.Z.Z.",
"I.I._._.T.T.C.z.k.b...X.d w S @X].].F o . X . 1 d.'.F 6 < - N <.1.&.*.5.OXOX`.L.N.N.k.z.k.z.T.W.K.J.",
"D.D.D.D.K.L.K.K.A.C.D.T s o % e.g./.s.< < 3 X 6 h./.V 1 6 o - >.1.&.=.4.1.;.Q.9.K.J.C.A.K.K.K.J.n.n.",
"S.v.....D.K.).[.Q.L.Q.e # > : 5 q 0.z H z x u a q.0.1 A l 4 N 2.5.:.:.5.-.d f x ~.Q.K.U._.).Z.Z.....",
"C.C.D.B.J.K.U.Q.K.F.N : ; +.O.: O < z J.D.v E g P.j l &Xf x D ] :.<.<.3.M < 4 z W L.A.J.Q.U.n.n.v.v.",
"D.D.Q._.L.J.K.L.Z.H N { _ +.%.[ > # 0 9.M.Q.Q.c m.8.c.M.z r.c y ' b b ' % B z 0 z D.z.m.U.J.....J.Y.",
"J.J.).).F.C.G.K.Z.! | %.+.+.+.+.#.M v C M.L.L.e.Z.D.D.a A a.l r d s < + V f.s.C E D.Z.A.K.J.x.c.Y.P.",
"R.R._._.v.b.C.Z.g ' #.#.O.=.O.#.#._.U.k.z.A.A.P.P.U.U.c.j.K.Z E z.g o w f.oXf.h K C.).U.J.F.V.V.E.).",
"K.K.Q.).Z.m.A.K.d b @.{ | ].O.( } _.U.m.M.Z.Z.D.D.U.U.M.v.L.Q.F.r.p 1 X h  Xy.w 1 Z z d K.K.D.D.Q.).",
"M.m.D.D.Q.`.!.Q.Y N { / [ o.{ / b E.Q.Q.U.C.M.b.k.Q._.T.T.Q.!.Q.q.8.l 7 % #X$XJ i 0 9.I._.).T.R.).).",
"D.D.D.D.Q.Q.Q.l 7 ; +.+.( ( +.+.} P.P.U.K.M.m.c.v.U.Q.T.T.Q.Q.R.L.K.B 9 t #X#XI j z J.P.Q.Q.L.L.Q.Q.",
"I.P.l.b.K.T.K.v 8 < , @.{ { #.` M l.n.V.B.j.j.P.U.C.m.Q._.T.T.J.Z.^ e e V K I & a p.C.A.L.K.v.v.D.D.",
"U.P.v.z.J.L.L.U.j 6 + ` _ _ / + .       .   . . . . . . . .     . . X C '.d.y . K &Xc Z.L.J.v.m.D.J.",
"_._.T.T.C.z.U._.R.k 3 @ 6 6 @ . g y.i.i.U R R . U R . Y E s ~ y.i.Y X C ^.d.h 1 l r k v.J.D.v.C.U.E.",
"_._.L.K.C.v.U._.R.T p V B < 4   u.4X;X;XQ |.1Xs *X%X. *X>XU =X2X<Xy.. p 0.e 3 q 8 d z.m.J.J.v.m.U.U.",
"T.L.v.k.K.T.L.d e g B (.f.1 4   u.,X& . . y <X|.>XY   *X,X& $ -Xu.. . . 1 < 4 4 2 W p.W.T.K.z.z.Z.Z.",
"L.K.z.k.K.T.K.K.z j 7 ) F 7 3   u.2Xi.g . * p.4X*Xy   *X,X& . -Xy.  o o X o y V C 8 c Q.T.K.z.z.Z.C.",
"D.D.C.C.K.U.Q.Q.R.z 4 @ @ 8 8   u.4X1Xy.. $ Q 4X}.%   *X,X& . -Xy.  3 8 1 X C /.s.e K.K.Z.F.Q.Q.P.K.",
"B.M.C.C.K.U.Q._.Q.t.a X 3 q @   p.,X& .   & ,X1X2XU   *X,X& . -Xi.  X 9 0 2 m ^. .c.G.G.C.A.`._.P.P.",
"P.P.Q.Q.Z.m.m.m.I $XI w 4 6 @   p.3Xy.Q g Q >XH ;Xp.. =X,X& . -Xi.  . o 9 6 F s.Z |.M.M.v.C.Q.Q.Q.Q.",
"E.Q._.`.m.l.k.b.m.P P e 7 2 7   R ;X;X;XE }.|.$ Q |.. ~ %X% . u.R   . o w m V l x 8.z m.z.m.Q.Q.Q.Q.",
"n.n.J.K.J.J.P.E.M.b.G d i 6 4 . . $ $ $ X X X . X X . X X . . X X . X 4 B /.^.B x 8.l.z.C.C.M.Z.Z.C.",
"j.b.V.D.P.P.).[.B.:XP P w 8 3 * % % % $ $ $ $ $ $ $ $ * $ % % % % % & i 8 F V x x y.b.l.Z.C.c.c.k.k.",
"M.M.U.U.J.D.Q.`.9.t.#XG 4 9 7 d v.J.D.m.m.Z.Z.F.J.U.U.K.K.F.Z.U._.J.Z.u p n n 5 g L.M.Z.L.K.l.l.J.J.",
"D.D._._.J.Z.Q.[.j 9.Y w 8 q e K w.B.n.z.v.C.m.Z.D.).[._.`.F.z.E.{.f Y n N 5.2.> s w.J.J.Q.U.b.k.R.Q.",
"L.K.P.P.M.m.D.D.D.x e.i q 4 d r.j K.K.P.P.J.J.v.v.Q.Q.U.U.K.G.J.J.J.h >.4.2.4.} % r K.L.U.L.C.C.K.K.",
"Q.W.F.D.n.z.b.j.l.k i 2 7 % W j H T.Q.{.[.Q.U.b.b.Q.!.L.L.L.T.C.A A.1.4.2.$.$.} - U Q.Q.U.L.G.G.K.J.",
"J.J.J.J.J.J.D.D.F.Y 4 < o @ l 9.J.W J.D.J.J.F.m.n.L.U.F.Z.L.Q.M.b.Y T.:.$.*.*.:.&.-.M.M.F.F.K.G.M.n.",
"z.z.J.Y.Q.Q.).).R.K 1 1 X 4 8 Y E Y n.....n.n.D.D.D.D.z.k.U.`.n...z y <.2.&.@.@.@.b X.j.v.m.L.L.j...",
"J.J.J.K.Q.Q.J.V.P.i 8 3 X 1 @ w j P.J.M.M.m.M.K.K.K.J.F.Z.K.U.D.n.r.y ] ,.:.,.@., u x.c.F.J.L.K.c.c.",
"`.`.L.L._.[.c.X.I.g < 2 o . X 2 g `.`.Q.Q.m.Z._._.T.T.Q.!.J.M.K.c T w = } { @.[ + T n.Z.W.W.L.K.M.M.",
"Q.U.J.J.U.R.m.b.s & % % % $ % % & Q.U.L.K.H.J.Q.E.A.Z.R.Q.D.m.K.E.s % % = = = = % s D.J.K.K.F.F.D.D.",
"J.D.M.M.N.v.M.V.z.b.A.R.Q.`.L.z.C.K.J.n.B.Q.Q.U.P.j...J.T.m.k.U._.Q.Q.n.X.x.V.J.R.Q.`.Q.m.v...b.U.Q.",
"P.J.M.n.Z.A.D.D.M.m.F.K.U.Q.L.Z.A.Z.D.D.D.L.L.K.J.c.x.L.R.Z.m.J.U.L.T.D.c.V.K.J.J.K.Q.L.v.v.m.M.P.U.",
"Q.Q.b...U.`.P.J.K.L.D.m.D.J.P.`.U.b.m.Q.L.l.z.C.C.J.J.).`.U.P.v...C.K.R.`.Q.!.L.z.C.D.B...b._.Q.J.F.",
"Q.R.v.c.P.U.J.F.K.U.J.M.D.D.K.!.K.z.C.Q.L.m.M.Z.Z.D.D.U.U.K.J.M.k.Z.K.U.R.R.Q.K.z.m.J.D.x.n.Q.Q.F.F.",
"K.K.W.Q.c.j.v.v.U.{.U.P.V.j.M.R.K.Z.A.K.L.Q.Q.U.I.m.m.b.b.n.M.U.`.L.J.D.n.F.T.A...n.W.Q.!.Q.L.K.C.C.",
"K.K.L.L.v.b.m.C.U._.U.J.V.x.M.L.J.A.A.K.K.Q.Q.P.Y.Z.C.l.b.M.D.U.`.L.A.F.V.J.T.F.j.n.T.U.Q.Q.L.L.C.C.",
"C.C.M.M.Z.C.L.T.T.Q.A.m.J.R.J.v.Z.Q.R.K.K.G.G.M.D.E.Q.D.M.U.Q.R.Q.Z.k.K._.Q.R.K.M.D.L.J.m.V._.).z.z.",
"C.m.M.M.Z.C.K.T.T.Q.F.m.J.Q.J.v.Z.Q.R.K.K.G.G.M.V.E.Q.D.C.R.).R.Q.Z.k.K._.Q.R.K.M.D.K.J.M.D._.).z.l."
};
