/* XPM */
static const char *player[] = {
/* columns rows colors chars-per-pixel */
"50 50 209 2 ",
"   c #361500",
".  c #391700",
"X  c #3C1900",
"o  c #3B3333",
"O  c #421D00",
"+  c #481D00",
"@  c #442001",
"#  c #4A2201",
"$  c #47260B",
"%  c #522602",
"&  c #562A02",
"*  c #5D2D02",
"=  c #522A0A",
"-  c #58320B",
";  c #563110",
":  c #5B3313",
">  c #432A13",
",  c #693403",
"<  c #6A3A06",
"1  c #643304",
"2  c #743B06",
"3  c #693E15",
"4  c #613A12",
"5  c #4B392D",
"6  c #6E430B",
"7  c #7B4206",
"8  c #7A4908",
"9  c #784406",
"0  c #79441C",
"q  c #584438",
"w  c #724E2D",
"e  c #524B4D",
"r  c #6C5642",
"t  c #7A6A5F",
"y  c #747174",
"u  c #864806",
"i  c #8C4C07",
"p  c #8B4D09",
"a  c #844407",
"s  c #914D08",
"d  c #8B550C",
"f  c #995207",
"g  c #9C5509",
"h  c #9D5B09",
"j  c #945208",
"k  c #8C4D16",
"l  c #985714",
"z  c #A35A09",
"x  c #A55C18",
"c  c #9C6009",
"v  c #9E7618",
"b  c #A3630A",
"n  c #AC630A",
"m  c #AA6A0B",
"M  c #BB6D0D",
"N  c #B3680C",
"B  c #BE720D",
"V  c #B4760E",
"C  c #B86B15",
"Z  c #A86618",
"A  c #885526",
"S  c #935A27",
"D  c #8E5732",
"F  c #915833",
"G  c #A85D21",
"H  c #9C6B3C",
"J  c #9A6029",
"K  c #B76B28",
"L  c #B46C23",
"P  c #BA7329",
"I  c #B76D38",
"U  c #AB7639",
"Y  c #C67A01",
"T  c #CC7D01",
"R  c #C3750E",
"E  c #C97B0F",
"W  c #C5790B",
"Q  c #CB7D10",
"!  c #C3761A",
"~  c #C67925",
"^  c #C17836",
"/  c #947755",
"(  c #B76F40",
")  c #A47243",
"_  c #A67D50",
"`  c #BA7548",
"'  c #C37A4D",
"]  c #C57D56",
"[  c #C87F58",
"{  c #BE8B16",
"}  c #B98514",
"|  c #B78629",
" . c #CE8304",
".. c #D38404",
"X. c #D88705",
"o. c #D58A06",
"O. c #DB8C06",
"+. c #D2860A",
"@. c #D58C09",
"#. c #DB8E09",
"$. c #D7900B",
"%. c #DC930C",
"&. c #DF980E",
"*. c #DE9107",
"=. c #CE8211",
"-. c #C68A15",
";. c #D48512",
":. c #D68A13",
">. c #DC8D13",
",. c #D78F1A",
"<. c #DE9213",
"1. c #DE9911",
"2. c #DC9B19",
"3. c #D1901A",
"4. c #C39419",
"5. c #E1950B",
"6. c #E39A0D",
"7. c #E89E0E",
"8. c #E09106",
"9. c #E19214",
"0. c #E39D12",
"q. c #E89F10",
"w. c #E29D19",
"e. c #E39719",
"r. c #DCA01A",
"t. c #E9A20E",
"y. c #E6A00F",
"u. c #E6A214",
"i. c #EAA514",
"p. c #EDA915",
"a. c #E5A31A",
"s. c #E9A618",
"d. c #E7AA1C",
"f. c #ECAC1B",
"g. c #F0AD16",
"h. c #F1AF1B",
"j. c #EDB21E",
"k. c #E5B21F",
"l. c #F3B217",
"z. c #F3B31C",
"x. c #F6B81D",
"c. c #F9B91E",
"v. c #CA8733",
"b. c #CC9731",
"n. c #D2902A",
"m. c #E59F20",
"M. c #D9A637",
"N. c #E7A926",
"B. c #E4A125",
"V. c #EEB422",
"C. c #E7B328",
"Z. c #EFBA23",
"A. c #F3B621",
"S. c #F5BB21",
"D. c #F8BD23",
"F. c #E7AA38",
"G. c #EEB732",
"H. c #EABB39",
"J. c #F0BB3A",
"K. c #FAC025",
"L. c #F6C129",
"P. c #F4C227",
"I. c #F3C43C",
"U. c #EEC038",
"Y. c #B8854A",
"T. c #BD996A",
"R. c #CB8444",
"E. c #C58148",
"W. c #CA815A",
"Q. c #C68759",
"!. c #D99955",
"~. c #D69847",
"^. c #ECB847",
"/. c #EBB64D",
"(. c #E6B450",
"). c #CE9A64",
"_. c #D5A268",
"`. c #CCAA79",
"'. c #D5AC79",
"]. c #D1AE72",
"[. c #ECBA64",
"{. c #E7B87B",
"}. c #F2C444",
"|. c #F5CB56",
" X c #F3C657",
".X c #F2C567",
"XX c #F2CA74",
"oX c #F6D174",
"OX c #F8D97D",
"+X c #F1CC71",
"@X c #AFB3B8",
"#X c #D9BB89",
"$X c #E5BF86",
"%X c #E0C28F",
"&X c #F0CB88",
"*X c #F8D681",
"=X c #F8D889",
"-X c #F9DA96",
";X c #E3CA96",
":X c #FCE299",
">X c #FBE295",
",X c #F8DCA6",
"<X c #FCE6A5",
"1X c #F6E2AD",
"2X c #FEEBAE",
"3X c #FCE6A8",
"4X c #FFECB3",
"5X c #FAE4B0",
"6X c #FFF0B6",
/* pixels */
"X...5.6.s.f.z.S.i.0.f.D.S.D.u.Y $.z.z.c.z.#.%.u.u.u.u.g.l.z.z.z.A.i.8.p.D.z.c.z.p.u...@.$.1.z.z.%.$.",
"o.X.5.6.s.f.z.S.s.0.f.D.S.D.u.Y $.z.z.c.z.#.%.u.u.u.u.g.l.z.z.z.A.u.8.p.D.z.x.z.p.q...@.1.0.z.z.5.%.",
"f.f.i.i.$.+.q.i.h.S.u.5.u.h.h.z.h.g.i.%.6.p.g.z.z.%.$.g.z.u.q.&.@.i.z.A.L.s.o.%.5.7.p.p.A.z.z.x.z.z.",
"z.h.i.i.#. .0.i.z.D.u.#.q.f.. X X X . O.%.h.z.z.z.$.o.g.z.q.0.#. .u.O O O X . O.#.6.z.z.D.D.z.A.x.D.",
"z.z.u.0.f.f.h.h.S.L.z.i.u.X < a p p 2 #.5.g.p.6.6.h.z.5.#.u.p.f.A.1 l d a k k # %.%.#.6.D.S.z.z.i.i.",
"x.z.0.1.f.z.z.z.S.L.z.h.u.= j C C C i % 5.g.i.5.5.z.S.#...u.g.z.# 9 v.C C ~ L - $ #...$.D.S.z.z.y.7.",
"p.p.p.p.p.p.q.5.p.z.u.  : ` ' ' ' P N h O X . . X X X X X X X @ m R C ^ ' C C ' D O 7.u.z.z.%.&.p.p.",
"t.i.z.z.p.i.5.X.u.l.6.. : ] ] ] ` L M N * * 9 8 8 8 8 8 8 < # & W ;.M I ( K P W.F O i.g.x.g.....f.f.",
"j.j.h.h.0.5.5.&.u.i.u.. : ] ] [ S h R M a i :.<.<.9.9.9.9.N 1 , W >.>.g k ' [ W.F O i.i.g.p.6.6.6.6.",
"S.S.f.i.#.X.0.0.u.u.p.. : ] ] ( k f M E z m >.<.>.>.>.>.>.E h h =.>.Q f s I ' W.F O i.i.g.p.i.u.#.#.",
"f.f.z.h.u.q.6.&.&.%.&.. : ] ' l j f n >.>.9.9.<.>.>.>.;.;.>.9.9.9.:.n f s g I W.F X 5.5.6.7.p.i.6.6.",
"d.d.S.S.g.g.5.O.X...T . : ] ' C -.2.>.<.9.9.9.9.9.9.>.>.>.>.<.<.9.>.N z f g I W.D X X.O.X.O.g.l.i.u.",
"0.0.0.0.i.p.i.i.7.5.0.1.u.0 Z M 2.f.9.9.9.9.9.9.<.9.9.9.<.<.9.9.9.>.;.E M N x 0 : u.5.7.i.i.i.u.$.$.",
"8.#.T T 0.i.A.K.z.p.z.D.z.* f Q a.s.:.B c m +.9.9.9.9.9.9.9.>.R m E >.>.;.Q n * + z.i.f.D.A.6.6.T T ",
"5.5.0.1.u.i.f.z.i.q.u.u.u.% u 2.f.w.R A t w h >.9.9.9.9.9.+.v./ 5 p :.9.9.9.E 2 * p.7.u.z.f.$.$.#.#.",
"0.0.z.S.p.u.i.p.6.&.@. .# 7 h 2.s.9.m r @Xt < <.9.9.9.9.9.c / @Xe - =.>.9.;.R z 7 . O.%.f.u.T T u.a.",
"u.u.A.A.q.5.t.i.6.#.$.. & z M :.<.9.m 5 y e < >.9.9.9.9.9.8 q y 5 - ;.<.9.>.=.R p O 6.q.i.u.+.@.a.s.",
"h.h.S.D.#...5.6.o.T %.X & z N =.a.s.V > o 5 6 ,.<.s.j.V.j.d 5 e o 1 <.9.9.9.;.R p O A.f.u.q.1.1.j.A.",
"i.i.z.A.6.%.7.i.%.o.6.X & z M 2.Z.Z.a.m $ 6 b.&XF.f.Z.P.P.d.v $ - -.j.V.V.j.<.E i @ f.f.i.i.0.0.z.A.",
"&.%.0.0.z.D.x.z.h.p.X 7 l v.M.C.P.S.j.r.} v.[.2X[.XX.XF./.=X(.} { j.S.S.S.j.w.>.R h 1 . S.A.g.h.A.A.",
"0.0.0.0.z.z.z.z.p.u.O h ! (.[. X|.|.|. X X.X=X2X&X#X_.!.XX4X=X|.|.|.|.|.|. X^.N.<.;.9 X z.z.p.p.z.z.",
"d.s.o...i.g.i.s.0.  O h ! (.=X<X4X2X2X4X4X4X4X4X,X) l _.4X4X4X4X4X4X4X4X4X4X<XI.f.9.7 X p.i.#.#.0.0.",
"f.s.#.O.u.p.p.f.q.5.O s C M..X:X4X2X4X4X4X;X#X5X,XY.G ).4X#X'.=X4X4X4X4X4X2X-XG.2.Q < X p.u.#.%.0.u.",
"S.S.g.g.5.O.f.S.h.h.h.a z =.N.=X4X2X4X4X6XT.D 1X3X_.K Q.5XH b }.2X4X4X4X4X<X.XB.Q z * X u.0.#.5.f.j.",
"S.S.p.i.5.#.f.S.h.h.h.* 2 M ,.^.>X4X4X4X4XXX| _ _ '.$XT._ | M.=X4X4X4X4X<XXXF.=.h , % %.u.u.#.%.f.f.",
"g.p.#.X.i.g.p.p.6.%.i.. O z R 2.oX<X<X4X4X=XM.8 7 '.2X).9 2.oX4X4X4X2X<X=X^.-.z 2 O z.l.g.i.O.O.6.6.",
"p.i.O.X.i.g.i.i.6.*.i.A.i.% * b 2.G. X4X4X2X=XG.C.J.}.U.C.oX2X4X4X2X=X/.F.3.< % # x.z.z.g.i.O.O.6.5.",
"0.0.5.5.i.f.z.z.h.h.0.o.0.X O j =.f.^.-X-X>X:X:X:X:X:X:X:X2X4X2X-X=XXXF.<.n & O X &.i.i.6.q.z.z.s.i.",
"1.&.5.5.i.f.z.S.z.z.1. .&.O a N ;.<.a.V.V.V.}.2X4X4X4X4X4X4X4X:XG.V.N.f.w.R h % X @.t.t.5.7.D.S.s.s.",
"s.s.z.z.6.%.%.%.6.6.u.u.X @ f E :.a.s.=.b b | 5X4X4X4X4X4X6X=XM.2.j.f.s.e.;.R i , 5.&.&.#.5.z.z.z.z.",
"j.z.S.D.%.o.X...%.&.t.. # 9 n E >.a.B.v.) H U `.,X4X4X4X4X#X).~.~.F.B.e.9.>.;.R u O %.%.O.%.z.z.z.z.",
"$.$.u.i.u.u.s.j.&...q.. * M E ;.<.>.n.{.4X,X_.a '.4X4X4X4XH ) ,X-X!.R.n.>.>.>.Q i O o.O.5.5.&.6.6.5.",
" ...1.0.s.s.A.K.1.Y 0.* 7 E :.9.;.n Z '.6X4X#X2 `.4X4X4X4XH ) 3X-X!.R.! R ;.>.;.b 2 & o.6.5.@.@.X.X.",
"&.&.f.f.u.0.z.D.s.  O i N >.9.9.W z x !.#X%X`.l '.4X4X4X4XY.U %X'.E.v.! =.:.9.9.;.B , X p.i.o.o.u.u.",
"0.0.S.S.u.6.z.K.z.  O f R <.9.e.E N N N g a d k.=X4X4X4X4X X} 2 2 a R 9.e.e.e.9.>.;.7 . z.f...X.h.z.",
"p.i.s.s.&.%.0.0.0.  O g R >.<.9.=.R ! P K J U H.=X4X4X4X4XoXb.S A S v.m.s.s.e.9.>.;.7 . f.p.5.5.i.i.",
"z.l.q.0.$.O... .o.  X u n Q Q <.f.f.^.1X1X1X1X2X4X4X4X4X4X2X3X1X1X1X3X}.j.f.e.=.B n 1 . f.p.t.t.i.u.",
"u.u.u.u.u.u.0.0.q.q.X , u M R <.f.f.J.OX2X4X4X4X4X4X4X4X4X6X:XoXXXoXoXI.S.f.<.B z a & . q.q.i.t.&.$.",
"O.O.u.a.z.z.A.A.h.p.i.X @ j n :.a.w.w.N.oX*X*X*X*X*X*X*X*X*X Xf.e.a.a.N.C.2.N i , O Y  .#.%.p.p. .T ",
"u.u.u.i.z.z.u.1.s.z.p.p.q.O # b R R R Q V.A.V.f.f.f.f.f.f.f.f.a.>.E R R B z & O O $.+.@.q.u.p.i.@.@.",
"D.D.p.p.S.K.@.Y d.L.z.g.i.0 A L ~ ~ ! B { 4.4.} } { -.{ } -.} } V b P ~ ~ L S A 3 O.$.6.l.l.p.i.&.&.",
"z.f.u.u.f.h.%...0.f.p.  = ` R.E.E.R.^ h # O @ @ @ @ @ @ @ @ @ @ @ = U R.R.R.R.R.A X 0.u.i.i.q.q.0.0.",
"u.0.&.&.*.#.&.1.O...7.  @ : : ; ; ; - & O . z.f.s. .T u.g.%.X.f.X O 4 3 3 3 3 3 = X D.z.%.#.T ..f.z.",
"s.u.&.$.6.7.0.0.&.%.q.i..               . p.p.i.u.@.+.p.h.6.%.u.f.X . . . . . . . . z.p.#.#.%.&.s.f.",
"z.z...T f.D.s.u.i.p.0.%.0.u.s.D.f...%.z.p.o.O.5.5.u.u.A.D.f.s.#.T 5.i.h.D.z.x.p.O.5.0.1.T ..S.z.u.q.",
"z.h.#.@.s.f.u.q.i.f.u.&.0.0.i.x.i.O.5.z.p.%.&.6.6.0.0.f.f.i.u.&.X.6.i.f.h.h.z.i.O.%.u.0.+.$.z.z.q.q.",
"i.i.l.z.@. .#.#.f.L.f.s.1. .&.h.i.6.7.i.p.z.z.f.d.%.%.....$.&.f.D.p.u.0.$.q.g.7.T $.l.z.x.z.p.i.5.5.",
"i.i.p.p.#...%.5.f.D.f.u.1.+.&.p.u.7.7.i.i.z.z.s.a.6.5.o...&.0.f.D.p.7.q.1.u.g.q. .$.g.f.z.z.p.p.5.5.",
"5.5.&.&.6.5.p.g.g.z.7.%.u.h.u.#.6.z.h.i.i.t.t.&.0.j.z.0.&.f.z.h.z.6.X.i.D.z.h.i.&.0.p.u.%.1.S.A.O.O.",
"5.%.&.&.6.5.i.g.g.z.q.%.u.z.u.#.6.z.h.i.i.t.t.&.1.j.z.0.5.h.A.h.z.6.X.i.D.z.h.i.&.0.i.u.&.0.S.A.O.o."
};
