/* XPM */
static const char *wall[] = {
/* columns rows colors chars-per-pixel */
"50 50 108 2 ",
"   c #3E1A00",
".  c #441D00",
"X  c #491F00",
"o  c #4C2100",
"O  c #532401",
"+  c #582700",
"@  c #5C2901",
"#  c #632D01",
"$  c #682F02",
"%  c #673003",
"&  c #693003",
"*  c #6E3303",
"=  c #6F3403",
"-  c #683004",
";  c #6D3204",
":  c #6E3505",
">  c #703403",
",  c #723503",
"<  c #733605",
"1  c #743604",
"2  c #753706",
"3  c #773A07",
"4  c #7B3B06",
"5  c #7C3C06",
"6  c #7D3C07",
"7  c #7A3B08",
"8  c #7F3E08",
"9  c #833F07",
"0  c #823F08",
"q  c #834007",
"w  c #844007",
"e  c #834008",
"r  c #874209",
"t  c #884309",
"y  c #8A4509",
"u  c #8D460A",
"i  c #8F480B",
"p  c #90480B",
"a  c #C47700",
"s  c #C67A01",
"d  c #CC7D01",
"f  c #D27E02",
"g  c #CE8304",
"h  c #D38404",
"j  c #D88705",
"k  c #D58A06",
"l  c #DB8C06",
"z  c #D28608",
"x  c #D58C09",
"c  c #DB8E09",
"v  c #DE9107",
"b  c #D7900B",
"n  c #DC930C",
"m  c #DF980E",
"M  c #DC9610",
"N  c #DE9911",
"B  c #E09106",
"V  c #E1950B",
"C  c #E39A0D",
"Z  c #E89E0E",
"A  c #E39D12",
"S  c #E89F10",
"D  c #E6A00F",
"F  c #E9A20E",
"G  c #E6A214",
"H  c #EAA514",
"J  c #EDA915",
"K  c #E6A51A",
"L  c #E9A618",
"P  c #E7AA1C",
"I  c #EDAC1A",
"U  c #F1AC15",
"Y  c #F0AD16",
"T  c #F0AC17",
"R  c #F1AF1B",
"E  c #EFB01D",
"W  c #F3B116",
"Q  c #F3B217",
"!  c #F3B11A",
"~  c #F3B21B",
"^  c #F4B319",
"/  c #F5B31A",
"(  c #F6B61A",
")  c #F2B11C",
"_  c #F4B31E",
"`  c #F1B51F",
"'  c #F4B51C",
"]  c #F8B61D",
"[  c #F6B81D",
"{  c #F9BA1E",
"}  c #F0B420",
"|  c #F3B621",
" . c #F2B722",
".. c #F4B720",
"X. c #F3B820",
"o. c #F5BA20",
"O. c #F7BD21",
"+. c #F5BB24",
"@. c #F6BC24",
"#. c #F8BB22",
"$. c #F8BE22",
"%. c #F9BD25",
"&. c #F7C027",
"*. c #FAC025",
"=. c #F6C129",
"-. c #F8C228",
";. c #FAC52B",
":. c #FAC82D",
/* pixels */
"j h V C L I ` o.H A I $.o.$.G s b ' ! { ! c n G G G G U W ! / ` | H B J %.' { ! J G h x b M / / n b ",
"k j V C L I ` o.L A I #.o.$.G s b / ! { ! c n G G G G U W ! / ` | G B J $.' ] ! J S h x M A ' / V n ",
"I I H H b z S H R o.G V G R R ! R U H n C J U _ ! n b U ! G S m x H ' X.-.L k n V Z J J ..' ' [ ` ` ",
") R H H c g A H ) %.G c S I R { ! U G l n R ! ' ) b k U ! S A c g G #.o.-.G h l c C ! ! #.#.' ..[ O.",
"' ' G A I I R R o.=.) H G A L $.I m m c V U J C C R ) V c G J I | H C I &.! H S n n c C O.o.' / H H ",
"[ ' A N I _ ) ! +.=.` R G n H *.I x b c V U H V V ' o.c h G U ' %.H c I *.' R G c c h b O.o.' / D Z ",
"J J J J J J S V J / G n G | ) ! J n C R I I L c x A A I R I I L G L ! G N m b A ) J Z G ' ! n m J J ",
"F H ! / J H V j G W C h G :.o.U H v Z #...I L h g b b | *.) I G M I $.G x z g N *.' H U ( U h h I I ",
"E E R R A V V m G H G S H ..I Z G J J R J V V A A x z J ! G C I ) I I A c m C m n m H H U J C C C C ",
"+.+.I H c j A A G G J ! J U H V G #./ . . . . . . d d G U C B R #.I P A k C U m s z H H U J H G c c ",
"I I ) R G S C m m n m b S R G l C U U . # < : : # O G Z C C V E %.L V A A H ! G x b V V C Z J H C C ",
"P P o.o.U U V l j h d a b | A f n U U X 3 y r r 4 @ X m k S Z . X X . S I ) O.J v v j l j l U W H G ",
"A A A A H J H H Z V A N G R   . O * & @ O O # O o X . . Z . . O * ; O . A H ! J H G V Z H H H G b b ",
"B c d d A H ..*.! J ' %.. X $ 3 < # @ O O ; 4 + O o o o X O - 2 e w # . l C     { / H I @.X.C C d d ",
"V V A M G H I ! H S G . . O 4 p 5 O o O & 9 y 2 5 < $ @ @ $ r u i y # . Z   . .   J Z G ) I b b c c ",
"A A ' o.J G H J C m . O @ - y p 4 @ O $ , w u u u y 5 $ $ $ @ 4 u r @ . . . . . . A l n I G d d G K ",
"G G | ..S V F H C c . 3 r t i p 3 5 5 $ & * , t p 2 < r r 5 + # u r @ . . O @ O .   C S H G z x K L ",
"R R +.@.c h V C k . o 5 u q y u 3 r y * $ $ $ 5 r 3 3 p y 5 O # u u 8 o X O @ o . . | I G S N N E | ",
"H H ) | C n Z . X O $ 9 w * 5 y r r y r & + $ $ & y i u * # # 0 p i u 5 $ # o X . . I I H H A A ) | ",
"m n A A ` $.[ X X o @ # $ $ $ 4 t - e y & O + O # 9 r 9 @ O @ 5 t i i u 5 & . . .   K P o...U R X.X.",
"A A A A ! ' ) . . @ & $ $ $ # 4 u y y r * @ o @ # $ & * # $ $ $ < i i u u - . .   H G L ' ) J J ) ) ",
"P L k h H U H L . o O @ @ @ 4 y i 5 & O O o . o O O o O 4 0 , * 2 i y - $ @ o # @ . . Z J H c c A A ",
"I L c l G J J I . . . @ # @ r p u * @ X . . . X o o X O r u 4 2 2 y e @ O o O 4 < . . . J G c n A G ",
"+.+.U U V l . . o o o $ $ # 4 r r $ @ < # X . . o 3 4 7 u i y r # O O O o + $ , $ X . . G A c V I E ",
"+.+.J H V c . O < 3 # 3 , & 4 q r $ & 9 - O O O # u p i r i p t $ O O O X # * * @ X . . G G c n I I ",
"U J c j H X $ 5 u u r < * * 9 u u y t 3 $ & r y t i i t : u y r 3 & $ @ O & $ @ X . ! W U H l l C C ",
"J H l j H o 5 p p y < O # * r i y * @ $ * 4 i y < y t 5 y r = , $ O O < y 2 @ 2 - O . . U H l l C V ",
"A A V V H o # 3 y r $ X @ & q t 5 @ X @ 4 9 4 r 9 u r 3 u r @ + @ o o 3 p 9 < u y @ . . C S ) ) L H ",
"M m V V H X o $ 2 * O o O O < 3 * o . @ = < @ e u u u y u r O o O o o 4 u y y u y O . . V Z O.o.L L ",
"L L ) ) C . . O + # # @ O X # # o . . o O @ + r i 4 < 4 5 3 o X o . . # < < < 2 < o . . c V ' ' ) ! ",
"E ) o.%.n . . o O # # O O X O o X X O O O O o 8 r # @ $ # @ o . . . . X O @ @ $ # o . . l n / ' ' ' ",
"b b G H G G . . . o O o o o o o o + @ @ # # o ; * + O O O O o . . . . X o O O O o X X . . V m C C V ",
"g h N A L L . O O O O o X X X O O @ @ # $ $ o # O @ O . O O o X o O + + O @ O X o o o o . V x x j j ",
"m m I I G . o 5 r & @ o X o o 4 y % # $ $ # O O @ r - o < & @ @ % y q * $ # o o + @ # + . H k k G G ",
"A A +.+.G . o 5 y # @ # $ $ & r p q 3 # @ @ $ < 5 i r 4 4 , * * < 5 4 , & # o X @ @ O o ' I h j R ! ",
"J H L L m . X @ # O O @ & , 5 r 5 # @ # O o O & < 2 5 y 4 5 r 9 * $ * * + o . X @ O . . I J V V H H ",
"/ W S A b l X o X . . o & 2 5 5 $ o O $ @ O O @ # $ 3 u < 9 p y * $ * # . . . . o . . . I J F F H G ",
"G G G G G G X o . . . X # & & $ o o o @ @ @ # O O @ < w * < 5 4 * & $ O . . . . . . . . S S H F m b ",
"l l G K ! / X o . . . . o o O O . . . . X O O . . . @ & @ O O O @ @ o . . . . . . .     c n J J g d ",
"G G G H ) ' . . .   J . . . X X . . . . o o . . . . o O . . . . o o . . . . ! . . . z x S G J H x x ",
"%.#.J J o.*.x     ;._ . . . . . . . . . o o . . . . o O . . . . X o .     ' { H j l b C W W J H m m ",
") I G G I R n h A I J U J   . . .     . O o .   . . X o . .   . . o .   A G ! H V C A G H H S S A A ",
"G A m m v c m N l h Z R ) O.. . . H G . o o . I L . . . .   j . . . .   a z N G R ! $.! n c d h I ) ",
"L G m b C Z A A m n S H I `       C A         H G   . .   C n           x N H G G H ! J c c n m L I ",
"' ) h d I $.L G H J A n A G L $.I h n / J k l V V G G | %.I L c d V H R #.' [ J l V A M d h o.' G S ",
") R c x L I G S H I G m A A H [ H l V ! J n m C C A A I I H G m j C H I R R / H l n G A z b ) ! S S ",
"H H W ! x g c c I =.I L N g m R H C Z H J ' ' I P n n h h b m I %.J G A b S U Z d b W ! [ ' J H V V ",
"H H J J c h n V I @.I G N z m J G Z Z H H ! ! L K C V k h m A I $.J Z S N G U S g b U I ! ! J J V V ",
"V V m m C V J U U ! Z n G R G c C / R H H F F m A E ) A m I ' R ! C j H @.) R H m A J G n N o.| l l ",
"V n m m C V H U U ! S n G ! G c C ' R H H F F m N E ) A V R ..R ! C j H @.) R H m A H G m A o.| l k "
};
